<svg width="1922" height="982" viewBox="0 0 1922 982" fill="none" xmlns="http://www.w3.org/2000/svg">
<path d="M1894.1 881.094L1902.1 854.487L1921.2 874.965L1894.1 881.094Z" fill="#00F04F"/>
<path d="M1764.95 675.439L1782.34 653.768L1792.37 679.908L1764.95 675.439Z" fill="#00F04F"/>
<path d="M1730.1 334.668L1704.28 324.38L1726.34 307.132L1730.1 334.668Z" fill="#00F04F"/>
<path d="M1603.15 868.83L1627.98 881.336L1604.49 896.596L1603.15 868.83Z" fill="#00F04F"/>
<path d="M1559.68 762.716L1569.53 736.732L1587.15 758.492L1559.68 762.716Z" fill="#00F04F"/>
<path d="M1501.59 580.249L1488.86 555.549L1516.82 557.014L1501.59 580.249Z" fill="#00F04F"/>
<path d="M1364.86 277.253L1337.32 273.501L1354.57 251.437L1364.86 277.253Z" fill="#00F04F"/>
<path d="M1115.96 292.826L1088.18 292.465L1102.6 268.464L1115.96 292.826Z" fill="#00F04F"/>
<path d="M962.424 925.263L943.74 904.703L971.124 898.879L962.424 925.263Z" fill="#00F04F"/>
<path d="M1006.37 836.015L1025.06 856.575L997.671 862.399L1006.37 836.015Z" fill="#00F04F"/>
<path d="M1065.22 760.452L1091.68 768.92L1070.88 787.656L1065.22 760.452Z" fill="#00F04F"/>
<path d="M977.098 226.38L1003.48 217.68L997.658 245.064L977.098 226.38Z" fill="#00F04F"/>
<path d="M993.894 123.799L966.471 128.268L976.505 102.128L993.894 123.799Z" fill="#00F04F"/>
<path d="M688.903 902.232L714.145 913.852L691.213 929.924L688.903 902.232Z" fill="#00F04F"/>
<path d="M673.832 811.723L649.47 798.362L673.471 783.941L673.832 811.723Z" fill="#00F04F"/>
<path d="M562.636 666.337L587.568 654.045L585.608 681.989L562.636 666.337Z" fill="#00F04F"/>
<path d="M750.885 620.283L770.625 639.841L743.577 647.093L750.885 620.283Z" fill="#00F04F"/>
<path d="M612.671 576.637L595.467 554.819L623.195 550.922L612.671 576.637Z" fill="#00F04F"/>
<path d="M559.402 244.592L569.243 218.608L586.864 240.368L559.402 244.592Z" fill="#00F04F"/>
<path d="M709.619 160.284L698.648 134.757L726.439 138.169L709.619 160.284Z" fill="#00F04F"/>
<path d="M576.508 55.0644L604.216 52.9904L591.952 78.1624L576.508 55.0644Z" fill="#00F04F"/>
<path d="M276.282 611.56L303.93 614.346L287.466 636.998L276.282 611.56Z" fill="#00F04F"/>
<path d="M370.128 525.847L391.642 508.265L396.022 535.92L370.128 525.847Z" fill="#00F04F"/>
<path d="M414.662 166.172L387.676 159.558L407.136 139.426L414.662 166.172Z" fill="#00F04F"/>
<path d="M465.316 73.1929L492.062 80.7189L471.93 100.179L465.316 73.1929Z" fill="#00F04F"/>
<path d="M186.089 954.095L208.92 969.93L183.544 981.763L186.089 954.095Z" fill="#00F04F"/>
<path d="M123.007 656.277L150.747 654.699L138.035 679.647L123.007 656.277Z" fill="#00F04F"/>
<path d="M228.092 624.231L209.77 603.343L237.256 598.001L228.092 624.231Z" fill="#00F04F"/>
<path d="M28.77 530.392L53.892 518.536L51.456 546.424L28.77 530.392Z" fill="#00F04F"/>
<path d="M159.204 345.07L179.439 326.03L185.738 353.312L159.204 345.07Z" fill="#00F04F"/>
<path d="M1.845 316.731L27.195 305.321L24.255 333.181L1.845 316.731Z" fill="#00F04F"/>
<path d="M202.806 138.783L210.811 112.176L229.906 132.654L202.806 138.783Z" fill="#00F04F"/>
<path d="M1836.37 894.657L1862.52 904.043L1841.07 922.041L1836.37 894.657Z" fill="#6C6C6C"/>
<path d="M1886.17 580.055L1858.97 574.4L1877.7 553.592L1886.17 580.055Z" fill="#6C6C6C"/>
<path d="M1795.18 510.901L1767.91 516.321L1777.04 489.833L1795.18 510.901Z" fill="#6C6C6C"/>
<path d="M1765.24 448.603L1751.65 424.365L1779.65 424.841L1765.24 448.603Z" fill="#6C6C6C"/>
<path d="M1689 132.7L1664.07 144.992L1666.03 117.048L1689 132.7Z" fill="#6C6C6C"/>
<path d="M1766.65 24.6719L1786.39 44.2299L1759.34 51.4819L1766.65 24.6719Z" fill="#6C6C6C"/>
<path d="M1382.68 919.774L1410.31 916.746L1398.91 942.338L1382.68 919.774Z" fill="#6C6C6C"/>
<path d="M1454.09 533.486L1435.77 512.598L1463.25 507.255L1454.09 533.486Z" fill="#6C6C6C"/>
<path d="M1402.52 181.536L1376.14 190.236L1381.96 162.852L1402.52 181.536Z" fill="#6C6C6C"/>
<path d="M1362.44 32.2125L1358.93 4.63452L1384.71 15.5825L1362.44 32.2125Z" fill="#6C6C6C"/>
<path d="M1265.67 926.418L1292.28 934.422L1271.8 953.518L1265.67 926.418Z" fill="#6C6C6C"/>
<path d="M1117.18 743.805L1090.57 735.8L1111.05 716.704L1117.18 743.805Z" fill="#6C6C6C"/>
<path d="M1254.72 690.565L1244.19 664.85L1271.92 668.747L1254.72 690.565Z" fill="#6C6C6C"/>
<path d="M1280.75 634.774L1302.27 617.192L1306.65 644.847L1280.75 634.774Z" fill="#6C6C6C"/>
<path d="M1194.41 438.31L1216.53 421.49L1219.94 449.281L1194.41 438.31Z" fill="#6C6C6C"/>
<path d="M1312.53 356.927L1285.79 349.401L1305.92 329.941L1312.53 356.927Z" fill="#6C6C6C"/>
<path d="M1268.94 210.589L1293.87 198.297L1291.91 226.241L1268.94 210.589Z" fill="#6C6C6C"/>
<path d="M1074.91 126.058L1091.14 103.494L1102.54 129.086L1074.91 126.058Z" fill="#6C6C6C"/>
<path d="M1348.94 74.3011L1324 86.5931L1325.96 58.6491L1348.94 74.3011Z" fill="#6C6C6C"/>
<path d="M1025.09 365.385L1008.64 342.975L1036.5 340.035L1025.09 365.385Z" fill="#6C6C6C"/>
<path d="M639.788 443.134L665.604 453.422L643.54 470.67L639.788 443.134Z" fill="#6C6C6C"/>
<path d="M570.501 245.35L584.909 269.112L556.909 269.588L570.501 245.35Z" fill="#6C6C6C"/>
<path d="M265.125 885.312L287.535 868.862L290.475 896.722L265.125 885.312Z" fill="#6C6C6C"/>
<path d="M516.697 812.001L498.731 790.797L526.311 785.925L516.697 812.001Z" fill="#6C6C6C"/>
<path d="M267.291 706.293L288.359 724.433L261.871 733.561L267.291 706.293Z" fill="#6C6C6C"/>
<path d="M274.453 412.978L287.385 388.386L302.225 412.13L274.453 412.978Z" fill="#6C6C6C"/>
<path d="M354.231 327.577L329.531 340.301L330.997 312.34L354.231 327.577Z" fill="#6C6C6C"/>
<path d="M377.773 237.136L358.033 217.578L385.081 210.326L377.773 237.136Z" fill="#6C6C6C"/>
<path d="M45.819 465.845L62.449 443.567L73.397 469.355L45.819 465.845Z" fill="#6C6C6C"/>
<path d="M217.211 245.782L240.973 231.374L241.449 259.374L217.211 245.782Z" fill="#6C6C6C"/>
<path d="M244 59.4406L216.538 55.2169L234.159 33.4569L244 59.4406Z" fill="#6C6C6C"/>
<path d="M1728.01 789.254L1747.4 809.154L1720.23 815.928L1728.01 789.254Z" fill="#E5FFCB"/>
<path d="M1643.75 349.296L1621.78 332.288L1647.74 321.799L1643.75 349.296Z" fill="#E5FFCB"/>
<path d="M1677.45 202.448L1704.66 208.103L1685.92 228.911L1677.45 202.448Z" fill="#E5FFCB"/>
<path d="M1446.37 716.32L1460.58 692.43L1474.16 716.93L1446.37 716.32Z" fill="#E5FFCB"/>
<path d="M1499.6 410.287L1525.91 419.215L1504.78 437.585L1499.6 410.287Z" fill="#E5FFCB"/>
<path d="M1601.88 366.368L1606.1 338.906L1627.86 356.527L1601.88 366.368Z" fill="#E5FFCB"/>
<path d="M1617.97 141.562L1590.99 134.948L1610.45 114.816L1617.97 141.562Z" fill="#E5FFCB"/>
<path d="M1097.02 876.79L1084.3 852.09L1112.26 853.555L1097.02 876.79Z" fill="#E5FFCB"/>
<path d="M1255.31 500.587L1258.57 472.983L1280.94 489.839L1255.31 500.587Z" fill="#E5FFCB"/>
<path d="M854.373 671.032L839.547 647.546L867.519 646.566L854.373 671.032Z" fill="#E5FFCB"/>
<path d="M824.022 610.622L841.605 632.137L813.949 636.517L824.022 610.622Z" fill="#E5FFCB"/>
<path d="M921.16 408.744L893.819 413.691L903.396 387.379L921.16 408.744Z" fill="#E5FFCB"/>
<path d="M1007.29 278.014L1032.11 290.52L1008.62 305.78L1007.29 278.014Z" fill="#E5FFCB"/>
<path d="M1022.22 26.5796L1031.15 0.268222L1049.52 21.4001L1022.22 26.5796Z" fill="#E5FFCB"/>
<path d="M714.057 811.956L736.467 795.506L739.407 823.366L714.057 811.956Z" fill="#E5FFCB"/>
<path d="M619.602 368.129L607.31 343.197L635.254 345.157L619.602 368.129Z" fill="#E5FFCB"/>
<path d="M453.938 923.528L466.007 898.501L481.664 921.714L453.938 923.528Z" fill="#E5FFCB"/>
<path d="M367.74 425.509L381.95 401.619L395.53 426.119L367.74 425.509Z" fill="#E5FFCB"/>
<path d="M158.18 855.969L173.624 832.871L185.888 858.043L158.18 855.969Z" fill="#E5FFCB"/>
<path d="M226.336 799.156L253.265 792.313L245.547 819.229L226.336 799.156Z" fill="#E5FFCB"/>
</svg>
